<svg xmlns="http://www.w3.org/2000/svg" width="320" height="320" viewBox="0 0 320 320"><ellipse cx="160" cy="288" rx="80" ry="7" fill="#1a1410" opacity="0.15"></ellipse><g stroke="#1a1410" stroke-width="11" stroke-linecap="round" fill="none"><path d="M 110 232 L 96 278"></path><path d="M 210 232 L 224 278"></path><path d="M 138 240 L 130 282"></path><path d="M 182 240 L 190 282"></path></g><g stroke="#F46623" stroke-width="7" stroke-linecap="round" fill="none"><path d="M 110 232 L 96 278"></path><path d="M 210 232 L 224 278"></path><path d="M 138 240 L 130 282"></path><path d="M 182 240 L 190 282"></path></g><g transform="translate(70 188) rotate(-20)"><ellipse cx="0" cy="8" rx="24" ry="17" fill="#F46623" stroke="#1a1410" stroke-width="3"></ellipse><path d="M -14 2 Q -22 -2 -26 -10" stroke="#1a1410" stroke-width="3" fill="none" stroke-linecap="round"></path></g><g transform="translate(250 188) rotate(20)"><ellipse cx="0" cy="8" rx="24" ry="17" fill="#F46623" stroke="#1a1410" stroke-width="3"></ellipse><path d="M 14 2 Q 22 -2 26 -10" stroke="#1a1410" stroke-width="3" fill="none" stroke-linecap="round"></path></g><circle cx="160" cy="170" r="88" fill="#F46623" stroke="#1a1410" stroke-width="3.5"></circle><ellipse cx="120" cy="115" rx="22" ry="14" fill="#fff" opacity="0.3"></ellipse><ellipse cx="160" cy="198" rx="60" ry="34" fill="#FFD9B8" stroke="#1a1410" stroke-width="2.5"></ellipse><g><ellipse cx="128" cy="145" rx="26" ry="26" fill="#fff" stroke="#1a1410" stroke-width="3"></ellipse><ellipse cx="133.73" cy="143.36" rx="14.3" ry="14.3" fill="#1a1410"></ellipse><circle cx="128.01" cy="136.93" r="5.43" fill="#fff"></circle></g><g><ellipse cx="192" cy="145" rx="26" ry="26" fill="#fff" stroke="#1a1410" stroke-width="3"></ellipse><ellipse cx="197.73" cy="143.36" rx="14.3" ry="14.3" fill="#1a1410"></ellipse><circle cx="192.01" cy="136.93" r="5.43" fill="#fff"></circle></g><path d="M 96 106 Q 128 118 156 104" stroke="#1a1410" stroke-width="5.5" stroke-linecap="round" fill="none"></path><path d="M 164 104 Q 192 88 224 100" stroke="#1a1410" stroke-width="5.5" stroke-linecap="round" fill="none"></path><path d="M 135 182 Q 160 172 185 184" stroke="#1a1410" stroke-width="4" fill="none" stroke-linecap="round"></path><circle cx="185" cy="184" r="3" fill="#1a1410"></circle><circle cx="94" cy="172" r="11" fill="#FF5577" opacity="0.4"></circle><circle cx="226" cy="172" r="11" fill="#FF5577" opacity="0.4"></circle></svg>