<svg xmlns="http://www.w3.org/2000/svg" width="320" height="320" viewBox="0 0 320 320"><rect x="40" y="50" width="10" height="5" fill="#4FB8C9" transform="rotate(20 45 52)"></rect><rect x="260" y="40" width="10" height="5" fill="#F4C842" transform="rotate(-30 265 42)"></rect><circle cx="70" cy="90" r="4" fill="#FF5577"></circle><circle cx="255" cy="85" r="3" fill="#4FB8C9"></circle><ellipse cx="160" cy="288" rx="80" ry="7" fill="#1a1410" opacity="0.15"></ellipse><g stroke="#1a1410" stroke-width="11" stroke-linecap="round" fill="none"><path d="M 110 232 L 96 278"></path><path d="M 210 232 L 224 278"></path><path d="M 138 240 L 130 282"></path><path d="M 182 240 L 190 282"></path></g><g stroke="#F46623" stroke-width="7" stroke-linecap="round" fill="none"><path d="M 110 232 L 96 278"></path><path d="M 210 232 L 224 278"></path><path d="M 138 240 L 130 282"></path><path d="M 182 240 L 190 282"></path></g><g transform="translate(70 188) rotate(-65)"><ellipse cx="0" cy="8" rx="24" ry="17" fill="#F46623" stroke="#1a1410" stroke-width="3"></ellipse></g><g transform="translate(250 188) rotate(65)"><ellipse cx="0" cy="8" rx="24" ry="17" fill="#F46623" stroke="#1a1410" stroke-width="3"></ellipse></g><circle cx="160" cy="170" r="88" fill="#F46623" stroke="#1a1410" stroke-width="3.5"></circle><ellipse cx="160" cy="198" rx="60" ry="34" fill="#FFD9B8" stroke="#1a1410" stroke-width="2.5"></ellipse><g><ellipse cx="128" cy="145" rx="26" ry="11.7" fill="#fff" stroke="#1a1410" stroke-width="3"></ellipse><ellipse cx="128" cy="144.63" rx="14.3" ry="6.44" fill="#1a1410"></ellipse></g><g><ellipse cx="192" cy="145" rx="26" ry="11.7" fill="#fff" stroke="#1a1410" stroke-width="3"></ellipse><ellipse cx="192" cy="144.63" rx="14.3" ry="6.44" fill="#1a1410"></ellipse></g><path d="M 96 96 Q 128 78 156 100" stroke="#1a1410" stroke-width="5.5" stroke-linecap="round" fill="none"></path><path d="M 164 100 Q 192 78 224 96" stroke="#1a1410" stroke-width="5.5" stroke-linecap="round" fill="none"></path><path d="M 115 165 Q 160 232 205 165 Q 160 210 115 165 Z" fill="#1a1410" stroke-linejoin="round"></path><rect x="141" y="167" width="12" height="18" fill="#fff"></rect><rect x="168" y="167" width="12" height="18" fill="#fff"></rect><circle cx="94" cy="172" r="11" fill="#FF5577" opacity="0.8"></circle><circle cx="226" cy="172" r="11" fill="#FF5577" opacity="0.8"></circle></svg>