<svg xmlns="http://www.w3.org/2000/svg" width="320" height="320" viewBox="0 0 320 320"><ellipse cx="160" cy="288" rx="80" ry="7" fill="#1a1410" opacity="0.15"></ellipse><g stroke="#1a1410" stroke-width="11" stroke-linecap="round" fill="none"><path d="M 110 232 L 96 278"></path><path d="M 210 232 L 224 278"></path><path d="M 138 240 L 130 282"></path><path d="M 182 240 L 190 282"></path></g><g stroke="#F46623" stroke-width="7" stroke-linecap="round" fill="none"><path d="M 110 232 L 96 278"></path><path d="M 210 232 L 224 278"></path><path d="M 138 240 L 130 282"></path><path d="M 182 240 L 190 282"></path></g><g transform="translate(70 188) rotate(-20)"><ellipse cx="0" cy="8" rx="24" ry="17" fill="#F46623" stroke="#1a1410" stroke-width="3"></ellipse></g><g transform="translate(250 188) rotate(20)"><ellipse cx="0" cy="8" rx="24" ry="17" fill="#F46623" stroke="#1a1410" stroke-width="3"></ellipse></g><circle cx="160" cy="170" r="88" fill="#F46623" stroke="#1a1410" stroke-width="3.5"></circle><ellipse cx="160" cy="198" rx="60" ry="34" fill="#FFD9B8" stroke="#1a1410" stroke-width="2.5"></ellipse><g><ellipse cx="128" cy="145" rx="26" ry="26" fill="#fff" stroke="#1a1410" stroke-width="3"></ellipse><ellipse cx="128" cy="145.41" rx="14.3" ry="14.3" fill="#1a1410"></ellipse></g><g><ellipse cx="192" cy="145" rx="26" ry="26" fill="#fff" stroke="#1a1410" stroke-width="3"></ellipse><ellipse cx="192" cy="145.41" rx="14.3" ry="14.3" fill="#1a1410"></ellipse></g><path d="M 96 104 Q 128 122 156 112" stroke="#1a1410" stroke-width="5.5" stroke-linecap="round" fill="none"></path><path d="M 164 112 Q 192 122 224 104" stroke="#1a1410" stroke-width="5.5" stroke-linecap="round" fill="none"></path><path d="M 135 195 Q 160 178 185 195" stroke="#1a1410" stroke-width="4.5" fill="none" stroke-linecap="round"></path><path d="M 238 100 Q 232 114 242 118 Q 250 114 244 100 Q 241 94 238 100 Z" fill="#7bb3d9" stroke="#1a1410" stroke-width="2"></path><circle cx="94" cy="172" r="11" fill="#FF5577" opacity="0.3"></circle><circle cx="226" cy="172" r="11" fill="#FF5577" opacity="0.3"></circle></svg>