<svg xmlns="http://www.w3.org/2000/svg" width="320" height="320" viewBox="0 0 320 320"><ellipse cx="160" cy="288" rx="80" ry="7" fill="#1a1410" opacity="0.15"></ellipse><g stroke="#1a1410" stroke-width="11" stroke-linecap="round" fill="none"><path d="M 110 232 L 96 278"></path><path d="M 210 232 L 224 278"></path><path d="M 138 240 L 130 282"></path><path d="M 182 240 L 190 282"></path></g><g stroke="#F46623" stroke-width="7" stroke-linecap="round" fill="none"><path d="M 110 232 L 96 278"></path><path d="M 210 232 L 224 278"></path><path d="M 138 240 L 130 282"></path><path d="M 182 240 L 190 282"></path></g><g transform="translate(70 188) rotate(-20)"><ellipse cx="0" cy="8" rx="24" ry="17" fill="#F46623" stroke="#1a1410" stroke-width="3"></ellipse><path d="M -14 2 Q -22 -2 -26 -10" stroke="#1a1410" stroke-width="3" fill="none" stroke-linecap="round"></path><path d="M -5 16 Q -10 22 -18 20" stroke="#1a1410" stroke-width="2.5" fill="none" opacity="0.4"></path></g><g transform="translate(250 188) rotate(20)"><ellipse cx="0" cy="8" rx="24" ry="17" fill="#F46623" stroke="#1a1410" stroke-width="3"></ellipse><path d="M 14 2 Q 22 -2 26 -10" stroke="#1a1410" stroke-width="3" fill="none" stroke-linecap="round"></path><path d="M 5 16 Q 10 22 18 20" stroke="#1a1410" stroke-width="2.5" fill="none" opacity="0.4"></path></g><circle cx="160" cy="170" r="88" fill="#F46623" stroke="#1a1410" stroke-width="3.5"></circle><ellipse cx="120" cy="115" rx="22" ry="14" fill="#fff" opacity="0.3"></ellipse><ellipse cx="108" cy="108" rx="7" ry="4" fill="#fff" opacity="0.55"></ellipse><ellipse cx="160" cy="198" rx="60" ry="34" fill="#FFD9B8" stroke="#1a1410" stroke-width="2.5"></ellipse><circle cx="138" cy="198" r="2.8" fill="#1a1410" opacity="0.3"></circle><circle cx="160" cy="204" r="2.8" fill="#1a1410" opacity="0.3"></circle><circle cx="182" cy="198" r="2.8" fill="#1a1410" opacity="0.3"></circle><g><ellipse cx="128" cy="145" rx="26" ry="26" fill="#fff" stroke="#1a1410" stroke-width="3"></ellipse><ellipse cx="128.41" cy="145.82" rx="14.3" ry="14.3" fill="#1a1410"></ellipse><circle cx="122.69" cy="139.38" r="5.43" fill="#fff"></circle><circle cx="133.41" cy="150.82" r="2.43" fill="#fff" opacity="0.9"></circle></g><g><ellipse cx="192" cy="145" rx="26" ry="26" fill="#fff" stroke="#1a1410" stroke-width="3"></ellipse><ellipse cx="192.41" cy="145.82" rx="14.3" ry="14.3" fill="#1a1410"></ellipse><circle cx="186.69" cy="139.38" r="5.43" fill="#fff"></circle><circle cx="197.41" cy="150.82" r="2.43" fill="#fff" opacity="0.9"></circle></g><path d="M 96 104 Q 128 92 156 108" stroke="#1a1410" stroke-width="5.5" stroke-linecap="round" fill="none"></path><path d="M 164 108 Q 192 92 224 104" stroke="#1a1410" stroke-width="5.5" stroke-linecap="round" fill="none"></path><path d="M 118 168 Q 160 218 202 168 Q 160 200 118 168 Z" fill="#1a1410" stroke-linejoin="round"></path><rect x="144" y="170" width="11" height="16" fill="#fff"></rect><rect x="165" y="170" width="11" height="16" fill="#fff"></rect><path d="M 148 192 Q 160 204 172 192 Q 170 200 160 201 Q 150 200 148 192 Z" fill="#FF7799"></path><circle cx="94" cy="172" r="11" fill="#FF5577" opacity="0.6"></circle><circle cx="226" cy="172" r="11" fill="#FF5577" opacity="0.6"></circle></svg>