<svg xmlns="http://www.w3.org/2000/svg" width="320" height="320" viewBox="0 0 320 320"><ellipse cx="160" cy="288" rx="80" ry="7" fill="#1a1410" opacity="0.15"></ellipse><g stroke="#1a1410" stroke-width="11" stroke-linecap="round" fill="none"><path d="M 110 232 L 96 278"></path><path d="M 210 232 L 224 278"></path><path d="M 138 240 L 130 282"></path><path d="M 182 240 L 190 282"></path></g><g stroke="#F46623" stroke-width="7" stroke-linecap="round" fill="none"><path d="M 110 232 L 96 278"></path><path d="M 210 232 L 224 278"></path><path d="M 138 240 L 130 282"></path><path d="M 182 240 L 190 282"></path></g><g transform="translate(70 188) rotate(-20)"><ellipse cx="0" cy="8" rx="24" ry="17" fill="#F46623" stroke="#1a1410" stroke-width="3"></ellipse></g><g transform="translate(250 188) rotate(20)"><ellipse cx="0" cy="8" rx="24" ry="17" fill="#F46623" stroke="#1a1410" stroke-width="3"></ellipse></g><circle cx="160" cy="170" r="88" fill="#F46623" stroke="#1a1410" stroke-width="3.5"></circle><ellipse cx="160" cy="198" rx="60" ry="34" fill="#FFD9B8" stroke="#1a1410" stroke-width="2.5"></ellipse><path d="M 102 145 Q 128 132 154 145" stroke="#1a1410" stroke-width="3.5" fill="none" stroke-linecap="round"></path><path d="M 166 145 Q 192 132 218 145" stroke="#1a1410" stroke-width="3.5" fill="none" stroke-linecap="round"></path><path d="M 96 112 Q 128 118 156 112" stroke="#1a1410" stroke-width="5.5" stroke-linecap="round" fill="none"></path><path d="M 164 112 Q 192 118 224 112" stroke="#1a1410" stroke-width="5.5" stroke-linecap="round" fill="none"></path><path d="M 140 180 Q 160 186 180 180" stroke="#1a1410" stroke-width="4" fill="none" stroke-linecap="round"></path><circle cx="94" cy="172" r="11" fill="#FF5577" opacity="0.3"></circle><circle cx="226" cy="172" r="11" fill="#FF5577" opacity="0.3"></circle></svg>